<?xml version="1.0" standalone="no"?>
<!DOCTYPE svg PUBLIC "-//W3C//DTD SVG 20010904//EN"
 "http://www.w3.org/TR/2001/REC-SVG-20010904/DTD/svg10.dtd">
<svg version="1.0" xmlns="http://www.w3.org/2000/svg"
 width="256.000000pt" height="256.000000pt" viewBox="0 0 256.000000 256.000000"
 preserveAspectRatio="xMidYMid meet">
<metadata>
Created by potrace 1.14, written by Peter Selinger 2001-2017
</metadata>
<g transform="translate(0.000000,256.000000) scale(0.100000,-0.100000)"
fill="#000000" stroke="none">
<path d="M1274 2451 c-68 -41 -101 -117 -90 -208 l6 -53 -30 6 c-123 25 -211
-92 -215 -286 l-1 -95 -42 -3 c-48 -4 -47 -2 -57 -127 -3 -44 -7 -89 -8 -99
-1 -15 7 -23 36 -31 l39 -11 -27 -12 -28 -13 7 -102 c4 -56 9 -110 12 -119 3
-12 0 -18 -10 -18 -8 0 -17 -8 -20 -17 -7 -24 -2 -125 7 -140 4 -6 1 -54 -8
-105 -8 -51 -15 -115 -15 -143 0 -41 -8 -65 -46 -130 -25 -44 -51 -106 -59
-138 -7 -32 -20 -68 -28 -80 -20 -32 -29 -86 -17 -108 8 -14 4 -45 -15 -120
-15 -58 -25 -121 -23 -147 3 -44 5 -47 40 -54 20 -4 56 -4 80 0 48 9 48 10 33
114 -9 55 18 152 46 172 26 18 99 202 99 251 0 23 8 52 20 70 11 17 30 45 41
63 12 17 25 32 30 32 4 0 13 19 19 43 20 79 53 162 76 193 13 17 24 37 24 45
0 8 12 -1 26 -18 14 -18 34 -33 43 -33 12 0 38 -29 72 -82 67 -101 74 -108
109 -108 16 0 30 -7 34 -16 10 -25 7 -92 -4 -99 -14 -9 -12 -108 6 -195 25
-124 34 -212 24 -230 -5 -9 -12 -41 -16 -71 -4 -30 -8 -56 -8 -59 -1 -3 28 -8
64 -12 36 -3 94 -11 130 -17 35 -5 84 -7 108 -4 39 5 43 8 40 32 -2 20 -14 31
-50 48 -29 14 -61 41 -83 70 -36 48 -36 48 -31 128 16 244 19 309 20 399 0 76
-3 101 -15 110 -8 6 -25 40 -38 76 -35 97 -88 199 -130 250 -57 68 -65 159
-13 131 18 -10 24 -8 39 16 17 26 31 119 32 216 1 39 -4 52 -24 71 -27 25 -29
34 -16 54 6 10 23 5 77 -22 38 -20 91 -38 119 -41 48 -6 52 -4 92 32 33 31 43
48 48 86 5 32 14 51 26 58 17 9 19 18 14 72 -6 61 -6 63 30 100 l36 37 99 0
c80 0 99 3 104 16 5 13 24 15 113 14 165 -3 173 -2 173 15 0 13 -18 15 -112
13 -103 -3 -113 -1 -110 15 2 10 -3 17 -13 17 -11 0 -15 11 -15 40 0 22 -4 40
-10 40 -5 0 -10 -20 -10 -45 0 -25 -4 -45 -10 -45 -5 0 -10 6 -10 13 0 9 -50
11 -226 9 -238 -3 -284 4 -284 40 0 10 -4 18 -10 18 -5 0 -10 -10 -10 -23 0
-20 -8 -25 -51 -36 -27 -7 -52 -12 -54 -10 -2 2 -6 16 -10 31 -6 23 -2 29 24
43 29 14 31 19 30 68 -2 94 -9 108 -69 144 -65 39 -127 44 -176 14z m466 -449
c0 -16 -11 -42 -25 -58 -14 -16 -25 -32 -25 -36 0 -20 -21 -4 -36 27 -16 34
-16 37 2 50 11 8 22 15 27 15 4 0 7 7 7 15 0 9 9 15 25 15 21 0 25 -5 25 -28z"/>
</g>
</svg>
